<svg width="112" height="95" viewBox="0 0 112 95" fill="none" xmlns="http://www.w3.org/2000/svg">
<g filter="url(#filter0_d_301_1835)">
<path d="M88.1039 43.6888L33.7458 43.8518L50.332 26.7253C51.1076 25.9231 51.4788 24.8908 51.3639 23.8555C51.2491 22.8202 50.6576 21.8666 49.7196 21.2046C48.7816 20.5426 47.574 20.2264 46.3623 20.3255C45.1506 20.4246 44.0342 20.931 43.2587 21.7332L20.4126 45.3018C20.2589 45.4891 20.1217 45.6859 20.0018 45.8905C20.0024 46.0863 20.0028 46.2038 19.6825 46.4006C19.4761 46.8503 19.3688 47.3287 19.3659 47.8116C19.3717 48.2945 19.4819 48.7722 19.691 49.2206C19.6916 49.4164 19.6919 49.5339 20.0133 49.7288C20.1344 49.9327 20.2729 50.1286 20.4276 50.3151L43.4146 73.7463C43.8469 74.1871 44.3876 74.541 44.9983 74.7829C45.609 75.0248 46.2747 75.1486 46.948 75.1457C48.0189 75.1442 49.0558 74.8224 49.8786 74.2361C50.3417 73.9059 50.7242 73.5009 51.004 73.0444C51.2838 72.5878 51.4555 72.0887 51.5094 71.5755C51.5632 71.0624 51.498 70.5453 51.3176 70.0539C51.1371 69.5625 50.845 69.1064 50.4579 68.7118L33.7693 51.6851L88.1274 51.5221C89.3429 51.5184 90.5075 51.1023 91.3648 50.3652C92.2221 49.6281 92.702 48.6305 92.6989 47.5917C92.6958 46.5529 92.2099 45.5582 91.3482 44.8262C90.4865 44.0943 89.3194 43.6851 88.1039 43.6888Z" fill="#636363"/>
</g>
<defs>
<filter id="filter0_d_301_1835" x="15.3657" y="20.3076" width="81.333" height="62.8381" filterUnits="userSpaceOnUse" color-interpolation-filters="sRGB">
<feFlood flood-opacity="0" result="BackgroundImageFix"/>
<feColorMatrix in="SourceAlpha" type="matrix" values="0 0 0 0 0 0 0 0 0 0 0 0 0 0 0 0 0 0 127 0" result="hardAlpha"/>
<feOffset dy="4"/>
<feGaussianBlur stdDeviation="2"/>
<feComposite in2="hardAlpha" operator="out"/>
<feColorMatrix type="matrix" values="0 0 0 0 0 0 0 0 0 0 0 0 0 0 0 0 0 0 0.25 0"/>
<feBlend mode="normal" in2="BackgroundImageFix" result="effect1_dropShadow_301_1835"/>
<feBlend mode="normal" in="SourceGraphic" in2="effect1_dropShadow_301_1835" result="shape"/>
</filter>
</defs>
</svg>
