<svg width="33" height="32" viewBox="0 0 33 32" fill="aqua" xmlns="http://www.w3.org/2000/svg">
<g clip-path="url(#clip0_300_166)">
<path d="M32.5761 29.6768L25.1403 22.4598C27.1456 20.0911 28.3434 17.0569 28.3434 13.7551C28.3434 6.16616 21.9978 0.0128174 14.1717 0.0128174C6.34564 0.0128174 0 6.16616 0 13.7551C0 21.344 6.34564 27.4973 14.1717 27.4973C17.5901 27.4973 20.7259 26.3228 23.1754 24.3652L30.6111 31.5756C31.4792 32.3456 32.2934 31.8497 32.5761 31.5756C33.1413 31.034 33.1413 30.2184 32.5761 29.6768ZM2.7657 13.7551C2.7657 7.6474 7.87316 2.69471 14.1717 2.69471C20.4702 2.69471 25.5844 7.6474 25.5844 13.7551C25.5844 19.8627 20.477 24.8154 14.1784 24.8154C7.87989 24.8154 2.7657 19.8627 2.7657 13.7551Z" fill="black"/>
</g>
<defs>
<clipPath id="clip0_300_166">
<rect width="33" height="32" fill="white"/>
</clipPath>
</defs>
</svg>
