<svg width="203" height="207" viewBox="0 0 203 207" fill="none" xmlns="http://www.w3.org/2000/svg">
<path d="M45.3501 45.9042H122.91V50.2429H130.699V39.5518H37.563V102.233H50.7945V95.8806H45.3501V45.9042Z" fill="black"/>
<path d="M72.8608 130.894V120.201H80.65V124.54H158.21V74.5634H152.764V68.2109H165.995V130.894H72.8608Z" fill="black"/>
<path d="M55.7397 116.684H148.876V54.0039H55.7397V116.684ZM63.5187 60.3547H141.077V110.331H63.5187V60.3547Z" fill="black"/>
<path d="M107.074 98.1546L91.8836 76.6846L70.5098 106.883H100.905H113.253H134.083L117.496 83.4344L107.074 98.1546Z" fill="black"/>
<path d="M105.85 81.2615C109.36 81.2615 112.206 78.9401 112.206 76.0765C112.206 73.213 109.36 70.8916 105.85 70.8916C102.34 70.8916 99.4941 73.213 99.4941 76.0765C99.4941 78.9401 102.34 81.2615 105.85 81.2615Z" fill="black"/>
</svg>
